<?xml version="1.0" encoding="UTF-8"?>
<!DOCTYPE svg PUBLIC "-//W3C//DTD SVG 1.1//EN" "http://www.w3.org/Graphics/SVG/1.1/DTD/svg11.dtd">
<!-- Creator: CorelDRAW 2020 (64-Bit) -->
<svg xmlns="http://www.w3.org/2000/svg" xml:space="preserve" width="367.656mm" height="70.1418mm" version="1.1" style="shape-rendering:geometricPrecision; text-rendering:geometricPrecision; image-rendering:optimizeQuality; fill-rule:evenodd; clip-rule:evenodd"
viewBox="0 0 21197.77 4044.13"
 xmlns:xlink="http://www.w3.org/1999/xlink"
 xmlns:xodm="http://www.corel.com/coreldraw/odm/2003">
 <defs>
  <style type="text/css">
   <![CDATA[
    .fil4 {fill:#4D4D4D;fill-rule:nonzero}
    .fil0 {fill:url(#id0)}
    .fil2 {fill:url(#id1)}
    .fil1 {fill:url(#id2);fill-rule:nonzero}
    .fil3 {fill:url(#id3);fill-rule:nonzero}
   ]]>
  </style>
  <linearGradient id="id0" gradientUnits="userSpaceOnUse" x1="5342.96" y1="2785.18" x2="6577.9" y2="311.97">
   <stop offset="0" style="stop-opacity:1; stop-color:gray"/>
   <stop offset="0.188235" style="stop-opacity:1; stop-color:white"/>
   <stop offset="0.329412" style="stop-opacity:1; stop-color:#B3B3B3"/>
   <stop offset="0.541176" style="stop-opacity:1; stop-color:white"/>
   <stop offset="0.709804" style="stop-opacity:1; stop-color:#999999"/>
   <stop offset="0.839216" style="stop-opacity:1; stop-color:white"/>
   <stop offset="1" style="stop-opacity:1; stop-color:gray"/>
  </linearGradient>
  <linearGradient id="id1" gradientUnits="userSpaceOnUse" xlink:href="#id0" x1="10815.02" y1="3161.24" x2="11050.71" y2="-37.49">
  </linearGradient>
  <linearGradient id="id2" gradientUnits="userSpaceOnUse" x1="6129.67" y1="2684.84" x2="6129.92" y2="-327.25">
   <stop offset="0" style="stop-opacity:1; stop-color:gray"/>
   <stop offset="0.439216" style="stop-opacity:1; stop-color:#CCCCCC"/>
   <stop offset="1" style="stop-opacity:1; stop-color:gray"/>
  </linearGradient>
  <linearGradient id="id3" gradientUnits="userSpaceOnUse" x1="10284.38" y1="2741.3" x2="10284.42" y2="-386.12">
   <stop offset="0" style="stop-opacity:1; stop-color:#008507"/>
   <stop offset="0.439216" style="stop-opacity:1; stop-color:#33CC33"/>
   <stop offset="1" style="stop-opacity:1; stop-color:#008507"/>
  </linearGradient>
 </defs>
 <g id="Layer_x0020_1">
  <metadata id="CorelCorpID_0Corel-Layer"/>
  <path class="fil0" d="M6925.05 551.05l490.67 2062.76 -951.16 0 -189.83 -1127.84 -687.52 626.66 76.97 -121.26c137.38,-216.44 304.15,-412.76 500.86,-577.49 64.86,-54.32 132.56,-104.79 202.98,-151.66 43.18,-28.74 87.32,-55.06 130.86,-83.01l21.79 -13.99 23.83 83.76 128.81 -229.02 269.2 -24.76 -171.45 -161.98 94.68 -246.82 -226.73 132.17 -205.11 -130.84 21.87 245.45 -216.49 171.38 154.64 5.9 -42.64 32.46c-497.41,378.68 -818.84,978.33 -1045.33,1548.76l-4.75 11.98 -890.75 10.56 1537.17 -2566.2 857.78 0 119.65 503.04z"/>
  <path class="fil1" d="M4444.61 2594.59l843.46 -10c253.17,-637.63 582.61,-1199.97 1051.56,-1556.96l-153.09 -5.85 249.15 -197.23 -24.42 -274.05 228.19 145.57 263.76 -153.76 -113 -475.06 -831.7 0 -1513.9 2527.36zm2064.64 -1399.21c-113.92,73.16 -494.8,280.03 -828.84,806.29l607.42 -553.66 192.99 1146.57 910.57 0 -488.18 -2052.25 -109.6 285.76 193.02 182.35 -301.51 27.74 -146.49 260.43 -29.37 -103.23z"/>
  <path class="fil2" d="M1214.19 2586.36c-423.3,0 -894.53,-103.86 -1198.11,-419.95l-16.08 -16.73 563.51 -552.73 16.36 14.48c219.31,194.11 499.8,280.92 789.63,280.92 61.48,0 191.26,-5.07 205.74,-85.62l1.26 -7.01c1.21,-6.75 1.56,-13.79 -0.14,-20.5 -15.33,-60.63 -243.32,-103.1 -291.84,-113.31 -273.43,-57.5 -677.69,-150.15 -841.16,-399.8 -82.14,-125.43 -92.94,-269.75 -66.84,-414.34l1.26 -6.98c12.92,-71.61 33.98,-141.52 63.02,-208.26 85.35,-196.14 233.09,-351.49 417.35,-458.26 220.6,-127.82 477.7,-178.29 730.63,-178.29 386.89,0 767.71,72.1 1060.59,342.01l17.06 15.73 -529.24 586.68 -17.33 -14.51c-184.56,-154.52 -436.48,-235.89 -675.91,-235.89 -56.69,0 -160.73,11 -173.63,82.17l-1.27 7c-1.21,6.64 -1.61,13.57 -0.19,20.2 13.43,62.91 230.41,100.75 278.42,109.99 280.94,54 708.6,149.58 866.62,416.2 73.12,123.38 80.06,263.12 55.15,401.49l-1.26 7c-23.53,130.7 -72.54,253.56 -147.73,363.15 -244.58,356.51 -693.18,485.14 -1105.89,485.14zm18981.92 -685.67l37.11 -205.54 -419.75 0 103.21 -571.58 1233.46 0 -211.32 1170.33 -7.79 5.54c-338.07,240.37 -745.75,371.62 -1160.75,371.62 -763.89,0 -1309.86,-512.01 -1168.49,-1297.33l1.26 -7c137.06,-761.33 840.15,-1296.01 1603.8,-1296.01 370.22,0 712.86,108.16 974.74,377.89l16.18 16.66 -591.11 585.45 -16.5 -16.53c-135.03,-135.19 -294.61,-206.49 -487.04,-206.49 -320.19,0 -574.99,251 -630.3,557.84l-1.26 6.99c-58.63,325.27 121.47,556.54 455.59,556.54 93.82,0 183.77,-8.2 268.96,-48.38zm-2538.5 -737.13l187.86 -1040.39 859.18 0 -450.59 2495.41 -760.17 0 -680.14 -1089.3 -196.68 1089.3 -859.19 0 450.6 -2495.41 798.62 0 650.51 1040.39zm-2911.9 1455.03l450.59 -2495.41 866.16 0 -450.59 2495.41 -866.16 0zm-1153.74 -746.48l1150.8 0 -134.79 746.48 -2016.96 0 450.59 -2495.41 866.16 0 -315.8 1748.93zm-2394.04 -882.78l814.27 -866.14 1017.52 0 -1073.48 1091.83 629.11 1403.58 -1027.47 0 -331.39 -759.11 -226.46 225.88 -96.28 533.22 -866.16 0 450.6 -2495.41 866.16 0 -156.4 866.14zm-1632.09 784.57l425.98 844.7 -986.78 0 -335.41 -699.58 -140.54 0 -126.32 699.58 -866.16 0 450.59 -2495.41 1215.87 0c291.68,0 651.47,47.27 849.07,288.42 143.9,175.61 163.54,381.39 123.96,599.7l-1.27 7c-64.34,354.78 -289.06,606.89 -609,755.6zm-6115.61 102.4l-120 664.59 -866.17 0 450.59 -2495.42 1121.42 0c301.58,0 671.62,63.68 860.82,325.57 121.29,167.88 135.56,374.72 99.82,573.01l-1.26 6.99c-116.59,646.75 -685.49,925.25 -1298.98,925.25l-246.25 0zm5192.81 -588.33l325.22 0c148.81,0 305.4,-55.96 334.67,-218.56l1.26 -7c29.7,-164.97 -108.25,-206.74 -245.89,-206.74l-337.19 0 -78.06 432.3zm-5078.87 -42.73l192.3 0c168.94,0 342.36,-66.81 375.34,-250.03l1.26 -7c34.14,-189.63 -111.75,-241.72 -274.57,-241.72l-204.27 0 -90.06 498.75z"/>
  <path class="fil3" d="M1214.19 2562.91c657.61,0 1137.68,-314.8 1230.53,-829l1.26 -7c89.06,-493.19 -297.85,-675.08 -903.11,-790.51 -250,-48.98 -308.88,-90.95 -296.88,-157.41l1.27 -7c10.74,-59.47 74.27,-101.44 196.71,-101.44 227.35,0 490.42,73.46 690.96,241.36l498.56 -552.67c-242.91,-223.86 -572.49,-335.8 -1044.7,-335.8 -675.08,0 -1103.92,360.3 -1187.92,825.51l-1.26 6.98c-93.48,517.69 360.8,675.09 889.76,787.02 252.86,52.47 322.86,90.95 310.23,160.9l-1.26 7.01c-12,66.45 -81.9,104.93 -228.82,104.93 -286.82,0 -575.98,-83.95 -805.18,-286.82l-531.34 521.17c262.05,272.84 684.52,412.75 1181.2,412.75zm18556.09 84.7c444.22,0 842.15,-150.41 1147.16,-367.27l204.63 -1133.31 -1185.79 0 -94.74 524.67 419.75 0 -44.21 244.85c-69.27,34.99 -150.02,55.97 -289.93,55.97 -342.79,0 -541.2,-237.86 -478.68,-584.15l1.26 -6.99c60,-332.29 335.07,-577.14 653.39,-577.14 202.88,0 367.36,76.94 503.64,213.38l558.01 -552.67c-224.15,-230.86 -538.18,-370.77 -957.92,-370.77 -773.04,0 -1448.71,545.66 -1580.72,1276.71l-1.26 7c-137.06,759.03 382.87,1269.72 1145.4,1269.72zm-3984.32 -52.47l811.51 0 204 -1129.81 705.44 1129.81 727.56 0 442.13 -2448.51 -811.52 0 -195.16 1080.85 -675.8 -1080.85 -766.03 0 -442.12 2448.51zm-1012.18 0l818.5 0 442.12 -2448.51 -818.5 0 -442.12 2448.51zm-2154.69 0l1969.29 0 126.32 -699.58 -1150.8 0 315.8 -1748.93 -818.49 0 -442.12 2448.51zm-2553.44 0l818.49 0 94.11 -521.17 255.99 -255.34 338.99 776.51 975.91 0 -620.86 -1385.15 1045.49 -1063.36 -951.42 0 -861.56 916.46 165.48 -916.46 -818.49 0 -442.12 2448.51zm-2500.97 0l818.5 0 126.31 -699.58 174.9 0 335.41 699.58 933.92 0 -419.83 -832.49c323.21,-143.41 553.44,-391.76 617.86,-748.54l1.27 -7c45.47,-251.84 1.35,-433.73 -119.01,-580.65 -140.45,-171.38 -397.2,-279.84 -830.93,-279.84l-1196.27 0 -442.12 2448.51zm1050.29 -1283.71l86.53 -479.21 356.79 0c188.88,0 297.41,76.94 268.98,234.35l-1.26 7c-27.16,150.41 -161.88,237.86 -357.75,237.86l-353.29 0zm-6122.84 1206.01l818.49 0 120 -664.59 265.85 0c661.1,0 1169.15,-314.8 1275.89,-905.95l1.26 -6.99c104.85,-580.65 -286.94,-870.98 -937.55,-870.98l-1101.82 0 -442.12 2448.51zm1043.97 -1248.74l98.53 -545.66 223.87 0c216.86,0 329.86,90.95 297.66,269.33l-1.26 7c-31.58,174.89 -188.55,269.33 -398.42,269.33l-220.37 0z"/>
  <path class="fil4" d="M12095.47 2962.26c-259.69,0 -466.08,168.97 -527.32,429.8 -56.71,249.48 57.84,416.19 283.5,416.19 179.18,0 318.66,-105.47 420.72,-281.24l-23.81 0c-66.91,98.66 -175.77,164.43 -297.12,164.43 -175.77,0 -231.34,-138.35 -189.38,-324.33 45.36,-192.78 171.24,-334.53 341.35,-334.53 12.47,0 24.94,1.13 37.42,2.26 -36.29,24.95 -64.64,63.51 -74.84,107.74 -17.01,73.71 28.34,133.81 103.19,133.81 74.85,0 148.56,-60.11 166.7,-136.09 22.68,-99.79 -62.37,-178.04 -240.41,-178.04zm401.44 802.9c-15.88,-17.01 -24.95,-45.36 -19.29,-72.58l165.57 -717.83 -46.49 0 -196.19 35.15 -4.54 22.68 7.94 9.06c19.28,15.88 27.21,45.36 20.42,72.58l-133.83 578.36c-5.67,27.21 -27.21,55.56 -54.43,72.58l-11.34 7.94 -5.67 23.81 282.37 0 5.67 -23.81 -10.21 -7.94zm492.17 -568.15c-197.32,0 -359.48,127.01 -402.58,315.25 -41.95,179.17 53.3,295.99 218.87,295.99 150.82,0 269.9,-98.66 340.21,-246.08l-23.81 0c-20.42,39.69 -108.87,129.27 -217.73,129.27 -64.64,0 -106.6,-31.75 -122.47,-87.31 31.75,7.93 62.37,12.47 92.99,12.47 149.69,0 281.24,-96.39 310.72,-224.54 23.82,-103.2 -28.34,-195.05 -196.18,-195.05zm-215.47 370.82c-1.13,-26.08 1.14,-55.57 7.95,-87.32 29.48,-125.88 117.93,-212.05 185.98,-212.05 108.87,0 58.97,231.34 -193.92,299.38zm750.73 -370.82c-142.88,0 -240.42,55.56 -258.56,133.81 -12.47,52.17 18.14,91.85 68.04,91.85 49.9,0 98.66,-39.68 110,-87.32 6.81,-28.34 -1.13,-53.3 -17.01,-69.17 6.81,-4.54 19.29,-7.94 35.16,-7.94 39.68,0 94.12,24.94 98.66,99.79 -29.49,94.13 -356.09,71.45 -404.86,280.1 -22.67,102.06 41.96,170.11 146.3,170.11 68.04,0 136.08,-29.49 185.97,-86.19 -1.13,57.84 36.29,86.19 97.53,86.19 85.05,0 138.35,-53.3 144.02,-81.65 -12.48,15.87 -29.49,15.87 -29.49,15.87 -22.68,0 -29.49,-11.34 -22.68,-40.83l65.77 -283.5c40.83,-176.91 -91.86,-221.14 -218.86,-221.14zm-6.81 383.29c-22.68,66.91 -73.71,111.13 -114.53,111.13 -36.28,0 -62.37,-35.15 -49.9,-91.85 22.68,-97.52 130.41,-116.8 196.19,-157.63l-31.76 138.35zm658.88 97.53c-20.41,89.58 15.87,130.41 90.72,130.41 85.05,0 139.48,-53.3 145.16,-81.65 -13.61,15.87 -30.62,15.87 -30.62,15.87 -22.68,0 -29.49,-11.34 -22.68,-40.83l68.05 -293.71c29.47,-125.88 -17.01,-210.92 -138.36,-210.92 -80.52,0 -157.63,38.55 -213.2,102.06l21.55 -89.59 -46.49 0 -197.32 35.15 -4.54 23.82 7.94 7.93c19.27,15.88 27.21,45.36 20.41,72.58l-79.38 343.61c-5.67,27.21 -27.21,55.56 -54.44,72.58l-11.34 7.94 -5.67 23.81 282.37 0 5.67 -23.81 -10.2 -7.94c-15.88,-17.01 -24.95,-45.36 -19.28,-72.58l65.77 -282.37c24.95,-74.85 74.85,-123.62 128.14,-123.62 56.71,0 77.12,49.9 57.84,132.68l-60.1 258.56zm432.06 -606.7c-13.61,58.97 23.81,107.73 82.78,107.73 60.1,0 120.21,-48.77 133.81,-107.73 13.61,-58.98 -23.81,-108.87 -83.92,-108.87 -58.97,0 -119.07,49.9 -132.67,108.87zm77.11 694.02c-15.87,-17.01 -24.95,-45.36 -19.28,-72.58l112.27 -483.1 -46.49 0 -197.32 35.15 -4.53 23.82 7.93 7.93c19.28,15.88 27.21,45.36 20.41,72.58l-79.38 343.61c-5.67,27.21 -27.21,55.56 -54.44,72.58l-11.34 7.94 -5.66 23.81 282.37 0 5.67 -23.81 -10.2 -7.94zm472.89 -87.32c-20.4,89.58 15.88,130.41 90.73,130.41 85.05,0 139.48,-53.3 145.15,-81.65 -13.61,15.87 -30.62,15.87 -30.62,15.87 -22.68,0 -29.49,-11.34 -22.68,-40.83l68.04 -293.71c29.48,-125.88 -17.01,-210.92 -138.35,-210.92 -80.52,0 -157.63,38.55 -213.2,102.06l21.55 -89.59 -46.49 0 -197.32 35.15 -4.53 23.82 7.93 7.93c19.28,15.88 27.22,45.36 20.41,72.58l-79.37 343.61c-5.68,27.21 -27.22,55.56 -54.45,72.58l-11.34 7.94 -5.66 23.81 282.37 0 5.66 -23.81 -10.2 -7.94c-15.87,-17.01 -24.95,-45.36 -19.27,-72.58l65.77 -282.37c24.94,-74.85 74.85,-123.62 128.14,-123.62 56.7,0 77.12,49.9 57.84,132.68l-60.11 258.56zm314.12 -235.88c-17.01,77.11 2.26,142.88 51.03,188.24 -75.98,57.84 -70.31,123.62 61.24,156.5 89.59,20.42 231.35,27.21 212.07,107.74 -11.34,52.16 -75.98,78.25 -161.04,78.25 -70.3,0 -122.47,-18.14 -154.22,-45.36 31.75,-13.6 56.7,-43.09 64.64,-75.98 11.34,-47.62 -19.28,-85.05 -65.77,-85.05 -47.64,0 -94.13,37.42 -105.47,85.05 -1.13,4.54 -2.26,7.94 -2.26,12.48 -7.95,131.54 154.22,180.31 292.57,180.31 174.64,0 306.18,-77.12 333.4,-192.79 38.57,-167.83 -201.85,-141.75 -335.66,-151.96 -83.91,-5.67 -116.81,-24.94 -108.87,-45.35 40.83,23.81 92.98,37.41 155.36,37.41 175.77,0 317.53,-106.6 351.55,-251.75 24.94,-108.86 -22.68,-191.65 -122.47,-225.67 14.74,-17 35.15,-34.02 58.97,-34.02 6.8,0 12.47,1.14 20.42,3.4 6.8,2.27 21.54,6.8 37.41,6.8 18.15,0 39.7,-5.66 56.71,-24.94 31.75,-36.29 34.02,-112.27 -48.77,-117.94 -86.18,-6.81 -165.56,66.9 -174.63,155.36 -18.15,-4.54 -39.7,-5.67 -62.38,-5.67 -173.5,0 -319.79,98.66 -353.81,244.95zm188.24 0c23.81,-103.2 85.05,-173.5 146.29,-173.5 61.24,0 89.59,71.44 65.77,176.9 -23.81,102.06 -82.78,175.77 -146.29,175.77 -62.37,0 -89.59,-75.98 -65.77,-179.17zm959.38 295.99c-34.01,0 -68.03,-7.95 -79.38,-13.61 37.42,-24.95 62.37,-52.17 72.58,-95.26 17.01,-74.85 -24.95,-146.29 -103.19,-146.29 -71.45,0 -145.16,60.1 -163.3,136.08 -30.62,136.09 145.16,189.39 285.77,189.39 188.24,0 342.47,-97.53 376.49,-246.08 63.51,-277.84 -396.91,-267.64 -360.62,-424.13 13.61,-58.97 89.59,-105.45 180.31,-105.45 46.49,0 56.71,13.6 69.18,14.74 -36.29,24.94 -54.43,63.5 -62.37,94.12 -15.87,72.57 20.41,123.61 90.73,123.61 69.17,0 128.14,-48.77 144.01,-117.94 26.08,-111.13 -74.84,-184.85 -247.21,-184.85 -187.11,0 -333.4,88.46 -362.88,217.73 -57.84,248.35 393.51,280.11 356.08,438.86 -14.74,65.78 -106.6,119.08 -196.19,119.08zm828.98 -540.93c-197.32,0 -359.48,127.01 -402.58,315.25 -41.95,179.17 53.3,295.99 218.87,295.99 150.82,0 269.9,-98.66 340.21,-246.08l-23.81 0c-20.42,39.69 -108.87,129.27 -217.73,129.27 -64.64,0 -106.6,-31.75 -122.47,-87.31 31.75,7.93 62.37,12.47 92.99,12.47 149.69,0 281.24,-96.39 310.72,-224.54 23.82,-103.2 -28.34,-195.05 -196.18,-195.05zm-215.47 370.82c-1.13,-26.08 1.14,-55.57 7.95,-87.32 29.48,-125.88 117.93,-212.05 185.97,-212.05 108.87,0 58.98,231.34 -193.92,299.38zm623.72 197.32c-15.87,-17.01 -24.95,-45.36 -19.27,-72.58l78.24 -335.67c11.34,-39.7 29.49,-57.84 48.77,-61.24 -21.55,66.9 4.53,94.12 22.68,106.6 15.87,10.21 36.28,15.88 58.97,15.88 38.55,0 81.65,-17.01 112.27,-54.43 61.24,-77.12 27.21,-166.7 -75.99,-166.7 -51.03,0 -103.19,22.68 -144.02,60.11l11.34 -47.64 -46.49 0 -197.32 35.15 -4.53 23.82 7.93 7.93c19.28,15.88 27.22,45.36 20.41,72.58l-79.38 343.61c-5.67,27.21 -27.21,55.56 -54.44,72.58l-11.34 7.94 -5.66 23.81 282.37 0 5.66 -23.81 -10.2 -7.94zm353.81 -523.92c19.28,15.88 27.21,45.36 20.41,72.58l-60.1 260.83c-32.89,145.15 22.68,233.61 141.75,233.61 173.51,0 345.88,-191.65 413.92,-435.47 49.9,-171.24 -1.13,-199.58 -46.49,-199.58 -51.03,0 -96.39,36.28 -106.6,80.51 -12.48,51.03 27.21,91.86 94.12,83.92 -49.9,230.21 -157.63,382.16 -266.49,382.16 -60.11,0 -65.77,-47.63 -39.69,-156.49l81.65 -353.82 -234.74 0 -5.68 23.81 7.94 7.94zm645.27 -170.1c-13.61,58.97 23.81,107.73 82.78,107.73 60.11,0 120.21,-48.77 133.81,-107.73 13.61,-58.98 -23.81,-108.87 -83.92,-108.87 -58.97,0 -119.07,49.9 -132.67,108.87zm77.11 694.02c-15.87,-17.01 -24.95,-45.36 -19.27,-72.58l112.26 -483.1 -46.49 0 -197.32 35.15 -4.53 23.82 7.94 7.93c19.27,15.88 27.21,45.36 20.4,72.58l-79.37 343.61c-5.68,27.21 -27.22,55.56 -54.45,72.58l-11.34 7.94 -5.67 23.81 282.37 0 5.66 -23.81 -10.2 -7.94zm477.42 -568.15c-189.38,0 -348.14,138.35 -388.97,315.25 -43.09,188.25 77.11,295.99 231.34,295.99 165.57,0 267.63,-121.34 327.74,-246.08l-23.82 0c-20.41,39.69 -108.86,129.27 -217.73,129.27 -104.32,0 -150.82,-86.18 -122.47,-210.92 29.49,-125.88 117.94,-212.05 198.46,-212.05 21.55,0 35.15,5.66 40.83,7.93 -27.22,18.14 -47.64,46.49 -55.58,79.38 -13.6,56.71 21.55,100.93 79.39,100.93 56.7,0 112.27,-44.23 127.01,-104.33 19.28,-86.18 -63.5,-155.36 -196.18,-155.36zm603.3 0c-197.32,0 -359.48,127.01 -402.58,315.25 -41.95,179.17 53.3,295.99 218.87,295.99 150.82,0 269.9,-98.66 340.21,-246.08l-23.81 0c-20.42,39.69 -108.87,129.27 -217.73,129.27 -64.64,0 -106.6,-31.75 -122.47,-87.31 31.75,7.93 62.37,12.47 92.99,12.47 149.69,0 281.24,-96.39 310.72,-224.54 23.82,-103.2 -28.34,-195.05 -196.18,-195.05zm-215.47 370.82c-1.13,-26.08 1.14,-55.57 7.95,-87.32 29.48,-125.88 117.93,-212.05 185.97,-212.05 108.87,0 58.98,231.34 -193.92,299.38zm692.89 115.67c-7.94,36.29 -45.36,62.37 -113.4,62.37 -43.09,0 -61.24,-10.21 -70.31,-18.14 23.81,-17.01 41.96,-40.83 48.77,-69.18 11.33,-49.9 -19.29,-90.72 -68.05,-90.72 -51.04,0 -100.93,40.83 -112.27,92.99 -18.13,77.12 57.84,147.43 221.14,147.43 154.24,0 260.83,-63.51 284.64,-170.11 44.22,-190.51 -242.68,-219.99 -217.73,-325.47 6.81,-32.88 43.09,-60.1 95.26,-60.1 32.88,0 61.24,10.21 68.03,20.42 -21.54,13.6 -38.55,37.42 -44.22,62.37 -10.21,44.23 17.01,79.39 62.37,79.39 44.23,0 87.32,-35.15 97.53,-81.65 15.87,-66.91 -43.09,-136.09 -191.64,-136.09 -145.16,0 -255.16,64.64 -278.97,166.7 -39.7,174.64 243.81,210.93 218.86,319.79z"/>
 </g>
</svg>
